<?xml version="1.0" encoding="utf-8"?>
<!-- Generator: Adobe Illustrator 27.3.0, SVG Export Plug-In . SVG Version: 6.00 Build 0)  -->
<svg version="1.1" id="Layer_1" xmlns="http://www.w3.org/2000/svg" xmlns:xlink="http://www.w3.org/1999/xlink" x="0px" y="0px"
	 viewBox="0 0 28 37.5" style="enable-background:new 0 0 28 37.5;" xml:space="preserve">
<style type="text/css">
	.st0{fill:none;}
</style>
<g>
	<g transform="translate(-2.000000, -1.000000)">
		<rect y="4" class="st0" width="32" height="32"/>
		<g transform="translate(3.000000, 2.000000)">
			<path d="M-0.5,7.9l2.2-4.4h9.8v9.6l-2.2,4.4h-9.8V7.9z M0.5,8.1v8.4h8.2l1.8-3.6V4.5H2.3L0.5,8.1z"/>
			<polygon points="8.5,8.5 0,8.5 0,7.5 9.5,7.5 9.5,17 8.5,17 			"/>
			<polygon points="10.6,3.8 11.4,4.2 9.4,8.2 8.6,7.8 			"/>
		</g>
		<g transform="translate(18.000000, 2.000000)">
			<path d="M-0.5,7.9l2.2-4.4h9.8v9.6l-2.2,4.4h-9.8V7.9z M0.5,8.1v8.4h8.2l1.8-3.6V4.5H2.3L0.5,8.1z"/>
			<polygon points="8.5,8.5 0,8.5 0,7.5 9.5,7.5 9.5,17 8.5,17 			"/>
			<polygon points="10.6,3.8 11.4,4.2 9.4,8.2 8.6,7.8 			"/>
		</g>
		<g transform="translate(18.000000, 17.000000)">
			<path d="M-0.5,7.9l2.2-4.4h9.8v9.6l-2.2,4.4h-9.8V7.9z M0.5,8.1v8.4h8.2l1.8-3.6V4.5H2.3L0.5,8.1z"/>
			<polygon points="8.5,8.5 0,8.5 0,7.5 9.5,7.5 9.5,17 8.5,17 			"/>
			<polygon points="10.6,3.8 11.4,4.2 9.4,8.2 8.6,7.8 			"/>
		</g>
		<g transform="translate(3.000000, 17.000000)">
			<path d="M-0.5,7.9l2.2-4.4h9.8v9.6l-2.2,4.4h-9.8V7.9z M0.5,8.1v8.4h8.2l1.8-3.6V4.5H2.3L0.5,8.1z"/>
			<polygon points="8.5,8.5 0,8.5 0,7.5 9.5,7.5 9.5,17 8.5,17 			"/>
			<polygon points="10.6,3.8 11.4,4.2 9.4,8.2 8.6,7.8 			"/>
		</g>
		<polygon points="8,30 7,30 7,19 8,19 		"/>
		<polygon points="7,15 7,14 18,14 18,15 		"/>
		<polygon points="22,14 23,14 23,25 22,25 		"/>
		<polygon points="23,29 23,30 12,30 12,29 		"/>
	</g>
</g>
</svg>
