<?xml version="1.0" encoding="utf-8"?>
<!-- Generator: Adobe Illustrator 27.3.0, SVG Export Plug-In . SVG Version: 6.00 Build 0)  -->
<svg version="1.1" id="Layer_1" xmlns="http://www.w3.org/2000/svg" xmlns:xlink="http://www.w3.org/1999/xlink" x="0px" y="0px"
	 viewBox="0 0 128 160" style="enable-background:new 0 0 128 160;" xml:space="preserve">
<style type="text/css">
	.st0{fill-rule:evenodd;clip-rule:evenodd;}
</style>
<g>
	<g transform="translate(-1506.000000, -784.000000)">
		<g transform="translate(1506.000000, 784.000000)">
			<g>
				<g transform="translate(8.000000, 14.000000)">
					<path class="st0" d="M2.8,15.5c-1.5,0-2.8,1.3-2.8,2.8V94c0,1.6,1.3,2.8,2.8,2.8h50.4v14H33.2c-1.5,0-2.8,1.3-2.8,2.8
						c0,1.6,1.3,2.8,2.8,2.8h45.5c1.5,0,2.8-1.3,2.8-2.8c0-1.6-1.3-2.8-2.8-2.8H58.8v-14h50.4c1.5,0,2.8-1.3,2.8-2.8V18.3
						c0-1.6-1.2-2.8-2.8-2.8H2.8z M5.6,91.2v-70h100.8v70H5.6z"/>
					<path class="st0" d="M44.5,71.5C44.5,71.5,44.5,71.5,44.5,71.5L38,71.5c0,0-0.1,0-0.1-0.1V53c0,0,0-0.1,0.1-0.1h6.4
						c0,0,0.1,0,0.1,0.1L44.5,71.5L44.5,71.5L44.5,71.5z M74,55.4l-2.2,13.5c0,0,0,0,0,0c-0.3,2.4-1.9,3.6-4.6,3.6H56h-0.6H50
						c-1.7,0-3.3-1.3-3.5-3c0-0.1,0-0.1,0-0.2V53.9l0.4-0.1c0,0,0,0,0,0c0.1,0,2-0.6,4-1.9c2.7-1.9,4.1-4.4,4.1-7.3v-6.1
						c0.9-0.1,2.3-0.2,3.4,0.6c1,0.7,1.5,2,1.5,4v7.1c0,0.5,0.4,1,1,1h3.6h4.7h1.3c0.8,0,1.6,0.3,2.3,0.8
						C73.7,52.8,74.2,54.1,74,55.4L74,55.4z"/>
				</g>
			</g>
		</g>
	</g>
</g>
</svg>
