<?xml version="1.0" encoding="utf-8"?>
<!-- Generator: Adobe Illustrator 27.3.0, SVG Export Plug-In . SVG Version: 6.00 Build 0)  -->
<svg version="1.1" id="Layer_1" xmlns="http://www.w3.org/2000/svg" xmlns:xlink="http://www.w3.org/1999/xlink" x="0px" y="0px"
	 viewBox="0 0 128 160" style="enable-background:new 0 0 128 160;" xml:space="preserve">
<style type="text/css">
	.st0{fill-rule:evenodd;clip-rule:evenodd;}
</style>
<g>
	<g transform="translate(-328.000000, -1506.000000)">
		<g transform="translate(328.000000, 1506.000000)">
			<g>
				<g transform="translate(8.000000, 0.000000)">
					<path class="st0" d="M112,43.3c0,5.3,0,10.7,0,16.1v6.4V66l-0.1,16.4c0,2-0.1,3.9-0.2,5.6c-0.4,8.9-3.5,17.2-9.7,25.6
						c-6.8,9.3-16.1,16.9-28.4,23.4c-3.7,1.9-7.4,3.5-11.1,5.1l-0.1,0c-0.8,0.3-1.7,0.7-2.5,1.1c-1.2,0.5-2.6,0.8-4,0.8
						c-1.1,0-2.2-0.2-3.3-0.6c-15.1-5.7-27.1-13.1-36.7-22.8c-7.7-7.7-12.4-15.9-14.5-25c-0.9-3.9-1.4-7.7-1.4-11.4
						C0,74.2,0,64.1,0,54.4v-0.1V43.8c0-5.9,3.1-9.2,8.9-9.6c13.5-0.9,26.5-5.9,41-15.8c1.8-1.2,3.8-2.4,6.1-2.4
						c2.3,0,4.3,1.1,6.1,2.4C72.9,26,82.7,30.5,92.8,32.7c2.6,0.6,5.3,0.9,8.1,1.2c1,0.1,1.9,0.2,2.9,0.3
						C109,34.9,112,38.3,112,43.3z M105.6,65.7l0-6.4v-16c0-1.8-0.6-2.4-2.5-2.7c-1-0.1-1.9-0.2-2.9-0.3c-3-0.3-5.9-0.7-8.8-1.3
						c-11-2.4-21.5-7.3-33-15.3c-1.2-0.8-2-1.3-2.4-1.3s-1.2,0.4-2.4,1.2c-15.5,10.6-29.5,16-44.2,17c-1.2,0.1-2,0.3-2.4,0.7
						c-0.4,0.4-0.6,1.3-0.6,2.5v10.5v0.1c0,9.7,0,19.8,0.1,29.7c0,3.2,0.4,6.6,1.2,10.1c1.8,7.9,6,15.1,12.8,22
						c8.9,9,20.2,15.9,34.4,21.3c0.3,0.1,0.6,0.2,1,0.2c0.5,0,1-0.1,1.4-0.3c0.9-0.4,1.7-0.7,2.5-1.1l0.1,0
						c3.5-1.5,7.2-3.1,10.6-4.9c11.4-6,20-13,26.2-21.5c5.4-7.2,8.1-14.5,8.5-22c0.1-1.7,0.1-3.4,0.1-5.3l0.1-16.5V65.7z"/>
					<g transform="translate(23.500000, 32.000000)">
						<circle cx="3.1" cy="19.3" r="2.5"/>
						<circle cx="61.6" cy="19.3" r="2.5"/>
						<circle cx="3.1" cy="76.8" r="2.5"/>
						<circle cx="61.6" cy="76.8" r="2.5"/>
						<path d="M29.5,48.1l-2,12.3h9.7l-2-12.3c2.2-1.1,3.7-3.3,3.7-5.9c0-3.6-2.9-6.6-6.6-6.6c-3.6,0-6.6,3-6.6,6.6
							C25.8,44.8,27.3,47.1,29.5,48.1z"/>
						<path d="M8.1,31.6C4.9,36.3,3,41.9,3,48c0,5.9,1.8,11.4,4.8,16l-0.2,0.2c-1.9,1.9-1.9,5,0,6.9l1.6,1.6c1.9,1.9,5,1.9,6.9,0
							l0.2-0.2c4.6,3.1,10.2,4.9,16.1,4.9c6.1,0,11.8-1.9,16.4-5.1l0.4,0.4c1.9,1.9,5,1.9,6.9,0l1.6-1.6c1.9-1.9,1.9-5,0-6.9
							l-0.6-0.6c2.9-4.5,4.6-9.9,4.6-15.7c0-6-1.8-11.5-4.9-16.1l0.9-0.9c1.9-1.9,1.9-5,0-6.9l-1.6-1.6c-1.9-1.9-5-1.9-6.9,0
							l-0.9,0.9c-4.6-3-10.1-4.8-16-4.8c-5.8,0-11.1,1.7-15.7,4.6L16,22.6c-1.9-1.9-5-1.9-6.9,0l-1.6,1.6c-1.9,1.9-1.9,5,0,6.9
							L8.1,31.6z M55.7,48c0,12.9-10.5,23.4-23.4,23.4S9,60.9,9,48c0-12.9,10.5-23.4,23.4-23.4C45.2,24.7,55.7,35.1,55.7,48z"/>
					</g>
				</g>
			</g>
		</g>
	</g>
</g>
</svg>
